<svg xmlns="http://www.w3.org/2000/svg" version="1.0" width="141.000000pt" height="22.000000pt" viewBox="0 0 141.000000 22.000000" preserveAspectRatio="xMidYMid meet" transform="matrix(1, 0, 0, 1, 0, 0)">

<g transform="translate(0.000000,22.000000) scale(0.100000,-0.100000)" fill="#ffffff" stroke="none">
<path d="M220 115 c0 -98 1 -105 20 -105 19 0 20 7 20 105 0 98 -1 105 -20 105 -19 0 -20 -7 -20 -105z" fill="#ffffff"/>
<path d="M300 200 c25 -25 25 -50 0 -83 -12 -15 -16 -27 -9 -29 6 -2 14 -19 18 -38 9 -47 39 -54 33 -8 -2 18 -10 40 -18 48 -11 13 -10 18 6 28 20 12 26 47 12 68 -7 11 -45 34 -56 34 -3 0 3 -9 14 -20z" fill="#ffffff"/>
<path d="M378 115 c-3 -92 -1 -105 13 -105 21 0 25 29 21 133 -3 56 -7 77 -17 77 -11 0 -14 -25 -17 -105z" fill="#ffffff"/>
<path d="M460 216 c0 -2 7 -7 16 -10 8 -3 12 -2 9 4 -6 10 -25 14 -25 6z" fill="#ffffff"/>
<path d="M515 115 c0 -92 2 -105 17 -105 20 0 25 32 20 138 -3 59 -7 72 -20 72 -15 0 -17 -14 -17 -105z" fill="#ffffff"/>
<path d="M605 210 c3 -5 11 -10 16 -10 6 0 7 5 4 10 -3 6 -11 10 -16 10 -6 0 -7 -4 -4 -10z" fill="#ffffff"/>
<path d="M652 208 c11 -43 100 -198 114 -198 20 0 18 8 -39 118 -29 56 -53 92 -63 92 -8 0 -14 -6 -12 -12z" fill="#ffffff"/>
<path d="M810 201 c0 -11 4 -22 8 -25 5 -3 19 -40 32 -83 23 -77 23 -78 35 -48 8 18 9 35 4 45 -5 8 -18 40 -28 70 -18 56 -51 82 -51 41z" fill="#ffffff"/>
<path d="M939 213 c0 -5 -1 -52 -2 -105 -2 -92 -1 -98 18 -98 19 0 20 7 20 105 0 93 -2 105 -17 105 -10 0 -18 -3 -19 -7z" fill="#ffffff"/>
<path d="M1010 115 c0 -98 1 -105 20 -105 19 0 20 7 20 105 0 98 -1 105 -20 105 -19 0 -20 -7 -20 -105z" fill="#ffffff"/>
<path d="M1082 208 c2 -7 25 -55 51 -105 36 -72 52 -93 68 -93 19 0 16 10 -33 103 -33 61 -62 103 -72 105 -11 3 -16 -1 -14 -10z" fill="#ffffff"/>
<path d="M1245 115 c0 -93 2 -105 18 -105 15 0 17 12 17 105 0 93 -2 105 -17 105 -16 0 -18 -12 -18 -105z" fill="#ffffff"/>
<path d="M33 186 c-23 -20 -28 -32 -28 -71 0 -40 5 -51 33 -76 22 -20 42 -29 65 -28 l32 1 -35 8 c-18 5 -40 16 -47 26 -26 35 -12 134 21 156 8 6 7 8 -1 8 -7 0 -25 -11 -40 -24z" fill="#ffffff"/>
<path d="M143 192 c10 -10 17 -29 17 -41 0 -12 4 -19 10 -16 16 10 12 40 -8 58 -25 23 -39 22 -19 -1z" fill="#ffffff"/>
<path d="M1349 184 c14 -18 21 -41 21 -69 0 -28 -7 -51 -21 -69 -26 -33 -6 -34 26 -1 36 35 35 102 -1 139 -34 34 -52 34 -25 0z" fill="#ffffff"/>
<path d="M148 61 c5 -48 32 -66 32 -22 0 16 3 36 6 45 5 12 0 16 -18 16 -21 0 -23 -4 -20 -39z" fill="#ffffff"/>
<path d="M470 20 c-9 -6 -10 -10 -3 -10 6 0 15 5 18 10 8 12 4 12 -15 0z" fill="#ffffff"/>
<path d="M610 20 c-9 -6 -10 -10 -3 -10 6 0 15 5 18 10 8 12 4 12 -15 0z" fill="#ffffff"/>
</g>
</svg>